{
	"asset":{
		"version":"2.0",
		"generator":""
	},
	"scenes":[{
		"nodes":[0,
		1]
	}],
	"meshes":[{
		"name":"Extrude.3",
		"primitives":[{
			"attributes":{
				"POSITION":1,
				"NORMAL":2,
				"TEXCOORD_0":3
			},
			"indices":0,
			"material":0
		}]
	},
	{
		"name":"Extrude.4",
		"primitives":[{
			"attributes":{
				"POSITION":5,
				"NORMAL":6,
				"TEXCOORD_0":7
			},
			"indices":4,
			"material":0
		}]
	},
	{
		"name":"Extrude",
		"primitives":[{
			"attributes":{
				"POSITION":9,
				"NORMAL":10,
				"TEXCOORD_0":11
			},
			"indices":8,
			"material":1
		}]
	},
	{
		"name":"Extrude.1",
		"primitives":[{
			"attributes":{
				"POSITION":13,
				"NORMAL":14,
				"TEXCOORD_0":15
			},
			"indices":12,
			"material":1
		}]
	}],
	"nodes":[{
		"name":"Null",
		"translation":[0.00971685629338026,
		-0.011629139073193074,
		0.04237249866127968],
		"rotation":[0.0,
		0.0,
		0.0,
		-1.0],
		"scale":[1.0,
		1.0,
		1.0],
		"children":[2,
		3]
	},
	{
		"name":"RS Camera",
		"camera":0,
		"translation":[0.0,
		0.0,
		2.140000104904175],
		"rotation":[0.0,
		-4.440892098500626e-16,
		0.0,
		-1.0],
		"scale":[1.0,
		1.0,
		1.0]
	},
	{
		"name":"Null.1",
		"translation":[-0.008447393774986267,
		-0.01110925804823637,
		0.01369737833738327],
		"rotation":[0.0,
		0.0,
		0.0,
		-1.0],
		"scale":[1.0,
		1.0,
		1.0],
		"children":[4,
		5]
	},
	{
		"name":"Null",
		"translation":[0.016894787549972535,
		0.02221851609647274,
		-0.02739475667476654],
		"rotation":[0.0,
		0.0,
		0.0,
		-1.0],
		"scale":[1.0,
		1.0,
		1.0],
		"children":[6,
		7]
	},
	{
		"name":"Extrude.3",
		"mesh":0,
		"translation":[-0.012667165137827397,
		0.022738397121429445,
		0.0],
		"rotation":[0.0,
		0.0,
		0.0,
		-1.0],
		"scale":[1.0,
		1.0,
		1.0]
	},
	{
		"name":"Extrude.4",
		"mesh":1,
		"translation":[0.012667165137827397,
		-0.022738397121429445,
		0.0],
		"rotation":[0.0,
		0.0,
		0.0,
		-1.0],
		"scale":[1.0,
		1.0,
		1.0]
	},
	{
		"name":"Extrude",
		"mesh":2,
		"translation":[-0.03800934925675392,
		-0.010589377954602242,
		0.03506048396229744],
		"rotation":[0.0,
		0.0,
		0.0,
		-1.0],
		"scale":[1.0,
		1.0,
		1.0]
	},
	{
		"name":"Extrude.1",
		"mesh":3,
		"translation":[-0.01267501711845398,
		-0.05606617406010628,
		0.03506048396229744],
		"rotation":[0.0,
		0.0,
		0.0,
		-1.0],
		"scale":[1.0,
		1.0,
		1.0]
	}],
	"cameras":[{
		"type":"perspective",
		"perspective":{
			"znear":0.009999999776482582,
			"zfar":10000000000.0,
			"aspectRatio":1.7777777910232545,
			"yfov":0.10116363316774368
		}
	}],
	"accessors":[{
		"bufferView":0,
		"type":"SCALAR",
		"componentType":5123,
		"count":70254,
		"byteOffset":0,
		"min":[0],
		"max":[13687]
	},
	{
		"bufferView":1,
		"type":"VEC3",
		"componentType":5126,
		"count":13688,
		"byteOffset":0,
		"min":[-0.07297273725271225,
		-0.0856705904006958,
		-0.005500000435858965],
		"max":[0.07297273725271225,
		0.08431936055421829,
		0.008500000461935997]
	},
	{
		"bufferView":1,
		"type":"VEC3",
		"componentType":5126,
		"count":13688,
		"byteOffset":12,
		"min":[-1.0,
		-1.0,
		-1.0],
		"max":[1.0,
		1.0,
		1.0]
	},
	{
		"bufferView":1,
		"type":"VEC2",
		"componentType":5126,
		"count":13688,
		"byteOffset":24,
		"min":[0.0,
		0.0],
		"max":[1.0,
		1.0]
	},
	{
		"bufferView":2,
		"type":"SCALAR",
		"componentType":5123,
		"count":41724,
		"byteOffset":0,
		"min":[0],
		"max":[8122]
	},
	{
		"bufferView":3,
		"type":"VEC3",
		"componentType":5126,
		"count":8123,
		"byteOffset":0,
		"min":[-0.049016255885362628,
		-0.039739739149808887,
		-0.005499999970197678],
		"max":[0.04763840511441231,
		0.03835519775748253,
		0.008500000461935997]
	},
	{
		"bufferView":3,
		"type":"VEC3",
		"componentType":5126,
		"count":8123,
		"byteOffset":12,
		"min":[-1.0,
		-1.0,
		-1.0],
		"max":[1.0,
		1.0,
		1.0]
	},
	{
		"bufferView":3,
		"type":"VEC2",
		"componentType":5126,
		"count":8123,
		"byteOffset":24,
		"min":[0.0,
		0.0],
		"max":[1.0,
		1.0]
	},
	{
		"bufferView":4,
		"type":"SCALAR",
		"componentType":5123,
		"count":15972,
		"byteOffset":0,
		"min":[0],
		"max":[3293]
	},
	{
		"bufferView":5,
		"type":"VEC3",
		"componentType":5126,
		"count":3294,
		"byteOffset":0,
		"min":[-0.07297273725271225,
		-0.08570970594882965,
		-0.04050000011920929],
		"max":[0.07297273725271225,
		0.08431936055421829,
		0.0005000000237487257]
	},
	{
		"bufferView":5,
		"type":"VEC3",
		"componentType":5126,
		"count":3294,
		"byteOffset":12,
		"min":[-1.0,
		-1.0,
		-1.0],
		"max":[1.0,
		1.0,
		1.0]
	},
	{
		"bufferView":5,
		"type":"VEC2",
		"componentType":5126,
		"count":3294,
		"byteOffset":24,
		"min":[0.0,
		0.0],
		"max":[1.0,
		1.0]
	},
	{
		"bufferView":6,
		"type":"SCALAR",
		"componentType":5123,
		"count":11652,
		"byteOffset":0,
		"min":[0],
		"max":[2399]
	},
	{
		"bufferView":7,
		"type":"VEC3",
		"componentType":5126,
		"count":2400,
		"byteOffset":0,
		"min":[-0.04902851954102516,
		-0.03974555432796478,
		-0.04050000011920929],
		"max":[0.04763840511441231,
		0.03835519775748253,
		0.0005000000819563866]
	},
	{
		"bufferView":7,
		"type":"VEC3",
		"componentType":5126,
		"count":2400,
		"byteOffset":12,
		"min":[-1.0,
		-1.0,
		-1.0],
		"max":[1.0,
		1.0,
		1.0]
	},
	{
		"bufferView":7,
		"type":"VEC2",
		"componentType":5126,
		"count":2400,
		"byteOffset":24,
		"min":[0.0,
		0.0],
		"max":[1.0,
		1.0]
	}],
	"bufferViews":[{
		"target":34963,
		"buffer":0,
		"byteOffset":0,
		"byteLength":140508
	},
	{
		"target":34962,
		"buffer":0,
		"byteOffset":140508,
		"byteLength":438016,
		"byteStride":32
	},
	{
		"target":34963,
		"buffer":1,
		"byteOffset":0,
		"byteLength":83448
	},
	{
		"target":34962,
		"buffer":1,
		"byteOffset":83448,
		"byteLength":259936,
		"byteStride":32
	},
	{
		"target":34963,
		"buffer":2,
		"byteOffset":0,
		"byteLength":31944
	},
	{
		"target":34962,
		"buffer":2,
		"byteOffset":31944,
		"byteLength":105408,
		"byteStride":32
	},
	{
		"target":34963,
		"buffer":3,
		"byteOffset":0,
		"byteLength":23304
	},
	{
		"target":34962,
		"buffer":3,
		"byteOffset":23304,
		"byteLength":76800,
		"byteStride":32
	}],
	"buffers":[{
		"uri":"data:application/octet-stream;base64,",
		"byteLength":578524
	},
	{
		"uri":"data:application/octet-stream;base64,",
		"byteLength":343384
	},
	{
		"uri":"data:application/octet-stream;base64,",
		"byteLength":137352
	},
	{
		"uri":"data:application/octet-stream;base64,",
		"byteLength":100104
	}],
	"materials":[{
		"pbrMetallicRoughness":{
			"baseColorFactor":[0.05035971223021573,
			0.05035971223021573,
			0.05035971223021573,
			1.0],
			"metallicFactor":0.0,
			"roughnessFactor":0.13700000650715084
		},
		"emissiveFactor":[0.0,
		0.0,
		0.0],
		"alphaMode":"OPAQUE",
		"doubleSided":false,
		"name":"Mat"
	},
	{
		"pbrMetallicRoughness":{
			"baseColorFactor":[0.03433980680868217,
			0.03375504678491028,
			0.03262281646824806,
			1.0],
			"metallicFactor":0.0,
			"roughnessFactor":0.0
		},
		"emissiveFactor":[0.0,
		0.0,
		0.0],
		"alphaMode":"OPAQUE",
		"doubleSided":false,
		"name":"Mat.1"
	}]
}